<svg width="708" height="720" viewBox="0 0 708 720" fill="none" xmlns="http://www.w3.org/2000/svg">
<g clip-path="url(#clip0_126_4)">
<rect width="708" height="720" fill="#F3F5F9"/>
<g clip-path="url(#clip1_126_4)">
<path d="M207 551.111H197.413V527.348L165.194 559.535L158.416 552.762L190.635 520.577H166.723V511H207V551.111Z" fill="#206193" fill-opacity="0.1"/>
<path d="M144.862 551.111H135.275V527.348L103.056 559.535L96.2772 552.762L128.496 520.577H104.584V511H144.862V551.111Z" fill="#206193" fill-opacity="0.1"/>
<path d="M82.7231 551.111H73.1365V527.348L40.9175 559.535L34.1388 552.762L66.3579 520.577H42.4459V511H82.7231V551.111Z" fill="#206193" fill-opacity="0.1"/>
<path d="M20.5847 551.111H10.9981V527.348L-21.2209 559.535L-27.9996 552.762L4.21944 520.577H-19.6926V511H20.5847V551.111Z" fill="#206193" fill-opacity="0.1"/>
<path d="M207 675.197H197.413V651.434L165.194 683.62L158.416 676.848L190.635 644.661H166.723V635.085H207V675.197Z" fill="#206193" fill-opacity="0.1"/>
<path d="M144.862 675.197H135.275V651.434L103.056 683.62L96.2772 676.848L128.496 644.661H104.584V635.085H144.862V675.197Z" fill="#206193" fill-opacity="0.1"/>
<path d="M82.7231 675.197H73.1365V651.434L40.9175 683.62L34.1388 676.848L66.3579 644.661H42.4459V635.085H82.7231V675.197Z" fill="#206193" fill-opacity="0.1"/>
<path d="M20.5847 675.197H10.9981V651.434L-21.2209 683.62L-27.9996 676.848L4.21944 644.661H-19.6926V635.085H20.5847V675.197Z" fill="#206193" fill-opacity="0.1"/>
<path d="M-28.0001 613.154H-18.4135V589.391L13.8055 621.577L20.5842 614.805L-11.6349 582.618H12.2771V573.042H-28.0001V613.154Z" fill="#206193" fill-opacity="0.1"/>
<path d="M34.1383 613.154H43.7249V589.391L75.944 621.577L82.7226 614.805L50.5036 582.618H74.4156V573.042H34.1383V613.154Z" fill="#206193" fill-opacity="0.1"/>
<path d="M96.2767 613.154H105.863V589.391L138.082 621.577L144.861 614.805L112.642 582.618H136.554V573.042H96.2767V613.154Z" fill="#206193" fill-opacity="0.1"/>
<path d="M158.415 613.154H168.002V589.391L200.221 621.577L207 614.805L174.781 582.618H198.693V573.042H158.415V613.154Z" fill="#206193" fill-opacity="0.1"/>
<path d="M-28.0001 737.24H-18.4135V713.477L13.8055 745.664L20.5842 738.891L-11.6349 706.705H12.2771V697.129H-28.0001V737.24Z" fill="#206193" fill-opacity="0.1"/>
<path d="M34.1383 737.24H43.7249V713.477L75.944 745.664L82.7226 738.891L50.5036 706.705H74.4156V697.129H34.1383V737.24Z" fill="#206193" fill-opacity="0.1"/>
<path d="M96.2767 737.24H105.863V713.477L138.082 745.664L144.861 738.891L112.642 706.705H136.554V697.129H96.2767V737.24Z" fill="#206193" fill-opacity="0.1"/>
<path d="M158.415 737.24H168.002V713.477L200.221 745.664L207 738.891L174.781 706.705H198.693V697.129H158.415V737.24Z" fill="#206193" fill-opacity="0.1"/>
</g>
<g clip-path="url(#clip2_126_4)">
<path d="M504 174.552H513.587V198.315L545.806 166.128L552.584 172.901L520.365 205.086H544.277V214.663H504V174.552Z" fill="#206193" fill-opacity="0.1"/>
<path d="M566.138 174.552H575.725V198.315L607.944 166.128L614.723 172.901L582.504 205.086H606.416V214.663H566.138V174.552Z" fill="#206193" fill-opacity="0.1"/>
<path d="M628.277 174.552H637.863V198.315L670.083 166.128L676.861 172.901L644.642 205.086H668.554V214.663H628.277V174.552Z" fill="#206193" fill-opacity="0.1"/>
<path d="M690.415 174.552H700.002V198.315L732.221 166.128L739 172.901L706.781 205.086H730.693V214.663H690.415V174.552Z" fill="#206193" fill-opacity="0.1"/>
<path d="M504 50.4665H513.587V74.2294L545.806 42.043L552.584 48.8154L520.365 81.0018H544.277V90.5777H504V50.4665Z" fill="#206193" fill-opacity="0.1"/>
<path d="M566.138 50.4665H575.725V74.2294L607.944 42.043L614.723 48.8154L582.504 81.0018H606.416V90.5777H566.138V50.4665Z" fill="#206193" fill-opacity="0.1"/>
<path d="M628.277 50.4665H637.863V74.2294L670.083 42.043L676.861 48.8154L644.642 81.0018H668.554V90.5777H628.277V50.4665Z" fill="#206193" fill-opacity="0.1"/>
<path d="M690.415 50.4665H700.002V74.2294L732.221 42.043L739 48.8154L706.781 81.0018H730.693V90.5777H690.415V50.4665Z" fill="#206193" fill-opacity="0.1"/>
<path d="M739 112.509H729.414V136.272L697.194 104.086L690.416 110.858L722.635 143.045H698.723V152.621H739V112.509Z" fill="#206193" fill-opacity="0.1"/>
<path d="M676.862 112.509H667.275V136.272L635.056 104.086L628.277 110.858L660.496 143.045H636.584V152.621H676.862V112.509Z" fill="#206193" fill-opacity="0.1"/>
<path d="M614.723 112.509H605.137V136.272L572.918 104.086L566.139 110.858L598.358 143.045H574.446V152.621H614.723V112.509Z" fill="#206193" fill-opacity="0.1"/>
<path d="M552.585 112.509H542.998V136.272L510.779 104.086L504 110.858L536.219 143.045H512.307V152.621H552.585V112.509Z" fill="#206193" fill-opacity="0.1"/>
<path d="M739 -11.577H729.414V12.1859L697.194 -20.0005L690.416 -13.2281L722.635 18.9583H698.723V28.5342H739V-11.577Z" fill="#206193" fill-opacity="0.1"/>
<path d="M676.862 -11.577H667.275V12.1859L635.056 -20.0005L628.277 -13.2281L660.496 18.9583H636.584V28.5342H676.862V-11.577Z" fill="#206193" fill-opacity="0.1"/>
<path d="M614.723 -11.577H605.137V12.1859L572.918 -20.0005L566.139 -13.2281L598.358 18.9583H574.446V28.5342H614.723V-11.577Z" fill="#206193" fill-opacity="0.1"/>
<path d="M552.585 -11.577H542.998V12.1859L510.779 -20.0005L504 -13.2281L536.219 18.9583H512.307V28.5342H552.585V-11.577Z" fill="#206193" fill-opacity="0.1"/>
</g>
</g>
<defs>
<clipPath id="clip0_126_4">
<rect width="708" height="720" fill="white"/>
</clipPath>
<clipPath id="clip1_126_4">
<rect width="235" height="234.663" fill="white" transform="matrix(-1 0 0 1 207 511)"/>
</clipPath>
<clipPath id="clip2_126_4">
<rect width="235" height="234.663" fill="white" transform="matrix(1 0 0 -1 504 214.663)"/>
</clipPath>
</defs>
</svg>
