<svg width="24" height="24" viewBox="0 0 24 24" fill="none" xmlns="http://www.w3.org/2000/svg">
<g clip-path="url(#clip0_193_26)">
<path d="M4.68722 7C4.50638 7.00052 4.32966 7.05407 4.17895 7.15402C4.02824 7.25397 3.91015 7.39593 3.8393 7.56232C1.60946 7.68976 -0.00693761 7.90408 2.23902e-05 8.0716C0.00650239 8.23792 1.6109 8.31088 3.82274 8.24536C3.89954 8.45224 4.04738 8.62456 4.23986 8.73184H3.88082V9.38992H3.44162C3.41406 9.38989 3.38675 9.39529 3.36128 9.40582C3.3358 9.41635 3.31265 9.43179 3.29314 9.45127C3.27364 9.47075 3.25817 9.49389 3.24761 9.51935C3.23706 9.54482 3.23162 9.57211 3.23162 9.59968V10.0686C3.23162 10.1846 3.32546 10.2784 3.44138 10.2784H6.39722C7.14194 10.4536 7.22522 10.7207 7.78298 11.2096C7.69178 11.7167 7.55738 12.2704 7.45226 12.749V16.8225C7.45226 16.9557 7.50517 17.0834 7.59935 17.1776C7.69353 17.2718 7.82127 17.3247 7.95446 17.3247C8.08765 17.3247 8.21539 17.2718 8.30957 17.1776C8.40375 17.0834 8.45666 16.9557 8.45666 16.8225V14.8528C8.44514 13.1968 8.7125 12.5272 9.63386 11.2454L9.86546 11.1378C9.86546 12.1329 10.5533 12.1926 11.5234 12.4146H10.7947C10.573 12.4146 10.393 12.5946 10.393 12.8166V15.2166C10.393 15.4384 10.573 15.6184 10.7947 15.6184H13.2053C13.4271 15.6184 13.6071 15.4384 13.6071 15.2166V12.8166C13.6071 12.5946 13.4271 12.4149 13.2053 12.4149H12.4774C13.4472 12.1922 14.1346 12.1326 14.1346 11.1378L14.3662 11.2454C15.5319 12.4516 15.5434 13.2726 15.5434 14.8526V16.8222C15.5434 16.9554 15.5963 17.0832 15.6905 17.1774C15.7847 17.2715 15.9124 17.3244 16.0456 17.3244C16.1788 17.3244 16.3065 17.2715 16.4007 17.1774C16.4949 17.0832 16.5478 16.9554 16.5478 16.8222V12.749C16.4247 12.2231 16.2929 11.6721 16.1686 11.1261C16.6963 10.6089 16.9128 10.4925 17.598 10.2784H20.5587C20.6143 10.2784 20.6676 10.2563 20.707 10.217C20.7463 10.1776 20.7684 10.1243 20.7684 10.0686V9.59968C20.7684 9.54405 20.7463 9.49069 20.707 9.45136C20.6676 9.41202 20.6143 9.38992 20.5587 9.38992H20.1192V8.73184H19.7602C19.9528 8.6246 20.1007 8.45206 20.1773 8.24536C22.3891 8.31088 23.9935 8.23792 24 8.0716C24.007 7.90408 22.3906 7.69 20.1607 7.56232C20.0924 7.40186 19.98 7.26401 19.8366 7.1647C19.6932 7.06539 19.5247 7.00867 19.3504 7.00109C19.1762 6.99351 19.0033 7.03538 18.8518 7.12186C18.7004 7.20835 18.5765 7.33592 18.4944 7.48984C16.2607 7.42192 14.6297 7.49416 14.6203 7.66168C14.6134 7.828 16.2079 8.04088 18.4188 8.16856C18.4513 8.28707 18.507 8.39792 18.5828 8.49464C18.6586 8.59135 18.7529 8.67199 18.8602 8.73184H18.5011V9.38992C16.237 9.38464 14.4845 8.2468 12 8.2C9.5993 8.25088 7.58882 9.38992 5.4989 9.38992V8.73184H5.13986C5.24717 8.67199 5.34147 8.59135 5.41725 8.49464C5.49304 8.39792 5.54878 8.28707 5.58122 8.16856C7.7921 8.04088 9.38666 7.82776 9.3797 7.66168C9.37034 7.49416 7.7393 7.42168 5.50562 7.48984C5.42658 7.34156 5.30862 7.21763 5.16443 7.13137C5.02023 7.0451 4.85525 6.99977 4.68722 7.00024V7ZM12 13.0031C12.5633 13.0031 13.0263 13.4661 13.0263 14.0294C13.0263 14.5926 12.5633 15.0558 12 15.0558C11.4367 15.0558 10.9733 14.5926 10.9733 14.0294C10.9733 13.4661 11.4365 13.0031 12 13.0031ZM12 13.6055C11.7624 13.6055 11.5759 13.7918 11.5759 14.0294C11.5759 14.267 11.7624 14.4532 12 14.4532C12.2376 14.4532 12.4236 14.267 12.4236 14.0294C12.4236 13.7918 12.2376 13.6055 12 13.6055Z" fill="#6C757D"/>
</g>
<defs>
<clipPath id="clip0_193_26">
<rect width="24" height="24" fill="white"/>
</clipPath>
</defs>
</svg>
