<svg width="156" height="40" viewBox="0 0 156 40" fill="none" xmlns="http://www.w3.org/2000/svg">
<path fill-rule="evenodd" clip-rule="evenodd" d="M13.3333 13.3333C13.3333 5.96954 7.3638 0 0 0V26.6667C0 34.0305 5.96953 40 13.3333 40L13.3333 13.3333ZM15.8333 13.3333C15.8333 5.96954 21.8029 0 29.1667 0L29.1667 26.6667C29.1667 34.0305 23.1971 40 15.8333 40L15.8333 13.3333Z" fill="#184E77"/>
<path d="M45.8942 30.2291C44.7417 30.2291 43.6517 30.0833 42.6242 29.7917C41.6105 29.5001 40.7635 29.1044 40.0831 28.6045L41.0204 26.0634C41.673 26.5217 42.4159 26.8827 43.249 27.1465C44.0961 27.4103 44.9778 27.5423 45.8942 27.5423C46.894 27.5423 47.6091 27.3895 48.0395 27.084C48.4839 26.7647 48.7061 26.3689 48.7061 25.8968C48.7061 25.4941 48.5533 25.1748 48.2478 24.9387C47.9423 24.7027 47.4078 24.5013 46.6441 24.3347L44.2905 23.8348C41.6661 23.2794 40.3539 21.9186 40.3539 19.7525C40.3539 18.8221 40.6038 18.0098 41.1037 17.3156C41.6036 16.6074 42.2979 16.0589 43.1866 15.6701C44.0891 15.2813 45.1305 15.0869 46.3108 15.0869C47.3244 15.0869 48.2756 15.2327 49.1643 15.5243C50.053 15.8159 50.7889 16.2255 51.3721 16.7532L50.4348 19.1276C49.2962 18.2251 47.9146 17.7738 46.29 17.7738C45.4152 17.7738 44.7348 17.9474 44.2488 18.2945C43.7767 18.6277 43.5406 19.0651 43.5406 19.6067C43.5406 20.0094 43.6864 20.3357 43.978 20.5856C44.2696 20.8355 44.7764 21.0369 45.4985 21.1896L47.8521 21.6895C50.5459 22.2727 51.8928 23.5918 51.8928 25.6469C51.8928 26.5633 51.6428 27.3687 51.143 28.063C50.657 28.7434 49.9627 29.278 49.0601 29.6667C48.1715 30.0417 47.1162 30.2291 45.8942 30.2291ZM53.7595 30V19.7733H56.8421V21.2521C57.1476 20.7245 57.5642 20.3148 58.0918 20.0232C58.6333 19.7178 59.2582 19.565 59.9664 19.565C60.6884 19.565 61.2994 19.7247 61.7992 20.0441C62.313 20.3634 62.7018 20.8494 62.9656 21.502C63.285 20.8911 63.7432 20.419 64.3403 20.0857C64.9513 19.7386 65.6247 19.565 66.3606 19.565C67.527 19.565 68.3949 19.9191 68.9642 20.6273C69.5335 21.3215 69.8181 22.3977 69.8181 23.8556V30H66.6731V23.9598C66.6731 23.2794 66.562 22.7865 66.3398 22.481C66.1315 22.1616 65.7705 22.0019 65.2567 22.0019C64.6597 22.0019 64.1945 22.2102 63.8613 22.6268C63.528 23.0433 63.3614 23.6335 63.3614 24.3972V30H60.2163V23.9598C60.2163 23.2794 60.1052 22.7865 59.883 22.481C59.6609 22.1616 59.2999 22.0019 58.8 22.0019C58.2029 22.0019 57.7377 22.2102 57.4045 22.6268C57.0712 23.0433 56.9046 23.6335 56.9046 24.3972V30H53.7595ZM75.6849 30.2291C74.9212 30.2291 74.2477 30.0833 73.6646 29.7917C73.0814 29.5001 72.6162 29.1044 72.2691 28.6045C71.9358 28.1046 71.7692 27.5423 71.7692 26.9174C71.7692 26.1815 71.9636 25.5913 72.3524 25.147C72.7412 24.7027 73.373 24.3902 74.2477 24.2097C75.1225 24.0153 76.282 23.9181 77.7261 23.9181H78.4759V23.5641C78.4759 22.9531 78.337 22.5226 78.0593 22.2727C77.7816 22.0089 77.3095 21.877 76.643 21.877C76.0876 21.877 75.4974 21.9672 74.8726 22.1477C74.2616 22.3144 73.6507 22.5712 73.0397 22.9184L72.1857 20.8147C72.5468 20.5787 72.9842 20.3634 73.4979 20.169C74.0256 19.9746 74.5741 19.8288 75.1434 19.7316C75.7127 19.6206 76.2542 19.565 76.768 19.565C78.3509 19.565 79.5312 19.926 80.3088 20.6481C81.0864 21.3563 81.4752 22.4602 81.4752 23.9598V30H78.5384V28.4587C78.3301 29.0002 77.976 29.4307 77.4761 29.7501C76.9901 30.0694 76.3931 30.2291 75.6849 30.2291ZM76.3931 28.1255C76.9763 28.1255 77.4692 27.9241 77.8719 27.5214C78.2746 27.1188 78.4759 26.598 78.4759 25.9593V25.5427H77.7469C76.6777 25.5427 75.921 25.6399 75.4766 25.8343C75.0323 26.0148 74.8101 26.3342 74.8101 26.7924C74.8101 27.1812 74.942 27.5006 75.2058 27.7505C75.4836 28.0005 75.8793 28.1255 76.3931 28.1255ZM83.8213 30V19.7733H86.9039V21.5437C87.3899 20.3495 88.4313 19.69 90.0281 19.565L90.9446 19.5025L91.132 22.1477L89.3616 22.3352C87.8064 22.4879 87.0288 23.2794 87.0288 24.7096V30H83.8213ZM98.0346 30.2291C95.1603 30.2291 93.7232 28.8336 93.7232 26.0426V22.1269H91.7862V19.7733H93.7232V16.774H96.8683V19.7733H99.8884V22.1269H96.8683V25.9177C96.8683 26.5008 97.0002 26.9382 97.264 27.2298C97.5417 27.5214 97.9791 27.6672 98.5762 27.6672C98.7567 27.6672 98.9442 27.6464 99.1385 27.6047C99.3468 27.5631 99.569 27.5075 99.8051 27.4381L100.263 29.7292C99.9717 29.882 99.6245 30 99.2219 30.0833C98.8192 30.1805 98.4234 30.2291 98.0346 30.2291ZM105.581 30.1875C104.692 30.1875 103.907 29.9792 103.227 29.5626C102.561 29.1322 102.04 28.5212 101.665 27.7297C101.29 26.9382 101.103 26.001 101.103 24.9179C101.103 23.8348 101.29 22.9045 101.665 22.1269C102.04 21.3354 102.561 20.7245 103.227 20.294C103.894 19.8636 104.678 19.6483 105.581 19.6483C106.344 19.6483 107.025 19.815 107.622 20.1482C108.219 20.4815 108.663 20.9327 108.955 21.502V15.316H111.059V30H108.997V28.2296C108.705 28.8406 108.254 29.3196 107.643 29.6667C107.046 30.0139 106.358 30.1875 105.581 30.1875ZM106.122 28.5628C106.983 28.5628 107.677 28.2504 108.205 27.6256C108.733 27.0007 108.997 26.0982 108.997 24.9179C108.997 23.7376 108.733 22.842 108.205 22.231C107.677 21.6062 106.983 21.2938 106.122 21.2938C105.247 21.2938 104.546 21.6062 104.019 22.231C103.491 22.842 103.227 23.7376 103.227 24.9179C103.227 26.0982 103.491 27.0007 104.019 27.6256C104.546 28.2504 105.247 28.5628 106.122 28.5628ZM114.012 30V19.8358H116.054V21.6478C116.581 20.4398 117.678 19.7664 119.344 19.6275L120.032 19.5858L120.178 21.3771L118.907 21.502C117.06 21.6826 116.137 22.6337 116.137 24.3555V30H114.012ZM126.056 30.1875C125.028 30.1875 124.139 29.9722 123.39 29.5418C122.64 29.1113 122.057 28.5073 121.64 27.7297C121.237 26.9382 121.036 26.001 121.036 24.9179C121.036 23.8348 121.237 22.9045 121.64 22.1269C122.057 21.3354 122.64 20.7245 123.39 20.294C124.139 19.8636 125.028 19.6483 126.056 19.6483C127.055 19.6483 127.93 19.8636 128.68 20.294C129.43 20.7245 130.013 21.3354 130.43 22.1269C130.846 22.9045 131.054 23.8348 131.054 24.9179C131.054 26.001 130.846 26.9382 130.43 27.7297C130.013 28.5073 129.43 29.1113 128.68 29.5418C127.93 29.9722 127.055 30.1875 126.056 30.1875ZM126.056 28.5628C126.916 28.5628 127.611 28.2504 128.138 27.6256C128.666 27.0007 128.93 26.0982 128.93 24.9179C128.93 23.7376 128.666 22.842 128.138 22.231C127.611 21.6062 126.916 21.2938 126.056 21.2938C125.181 21.2938 124.48 21.6062 123.952 22.231C123.424 22.842 123.16 23.7376 123.16 24.9179C123.16 26.0982 123.424 27.0007 123.952 27.6256C124.48 28.2504 125.181 28.5628 126.056 28.5628ZM133.417 30V19.8358H135.458V21.5229C135.805 20.9119 136.277 20.4467 136.874 20.1274C137.485 19.808 138.166 19.6483 138.916 19.6483C141.318 19.6483 142.519 21.0091 142.519 23.7307V30H140.415V23.8556C140.415 22.9809 140.242 22.3421 139.895 21.9394C139.561 21.5368 139.034 21.3354 138.312 21.3354C137.465 21.3354 136.784 21.6062 136.27 22.1477C135.771 22.6754 135.521 23.3766 135.521 24.2514V30H133.417ZM150.187 30.1875C148.521 30.1875 147.209 29.7223 146.251 28.792C145.293 27.8477 144.814 26.5633 144.814 24.9387C144.814 23.8973 145.022 22.9809 145.438 22.1894C145.869 21.384 146.459 20.7592 147.209 20.3148C147.959 19.8705 148.82 19.6483 149.792 19.6483C151.194 19.6483 152.298 20.0996 153.103 21.0022C153.909 21.8908 154.311 23.1197 154.311 24.6888V25.3969H146.855C147.007 27.5075 148.125 28.5628 150.208 28.5628C150.791 28.5628 151.361 28.4726 151.916 28.2921C152.485 28.1116 153.02 27.813 153.52 27.3965L154.145 28.8544C153.686 29.271 153.096 29.5973 152.374 29.8334C151.652 30.0694 150.923 30.1875 150.187 30.1875ZM149.875 21.1271C149 21.1271 148.306 21.3979 147.792 21.9394C147.278 22.481 146.966 23.203 146.855 24.1056H152.541C152.499 23.1614 152.249 22.4324 151.791 21.9186C151.333 21.391 150.694 21.1271 149.875 21.1271Z" fill="#184E77"/>
</svg>
