<svg width="708" height="960" viewBox="0 0 708 960" fill="none" xmlns="http://www.w3.org/2000/svg">
<g clip-path="url(#clip0_110_18)">
<rect width="708" height="960" fill="#F3F5F9"/>
<g clip-path="url(#clip1_110_18)">
<path d="M-29 793.111H-19.4134V769.348L12.8057 801.535L19.5843 794.762L-12.6347 762.577H11.2773V753H-29V793.111Z" fill="#206193" fill-opacity="0.1"/>
<path d="M33.1384 793.111H42.725V769.348L74.9441 801.535L81.7228 794.762L49.5037 762.577H73.4157V753H33.1384V793.111Z" fill="#206193" fill-opacity="0.1"/>
<path d="M95.2769 793.111H104.863V769.348L137.083 801.535L143.861 794.762L111.642 762.577H135.554V753H95.2769V793.111Z" fill="#206193" fill-opacity="0.1"/>
<path d="M157.415 793.111H167.002V769.348L199.221 801.535L206 794.762L173.781 762.577H197.693V753H157.415V793.111Z" fill="#206193" fill-opacity="0.1"/>
<path d="M-29 917.197H-19.4134V893.434L12.8057 925.62L19.5843 918.848L-12.6347 886.661H11.2773V877.085H-29V917.197Z" fill="#206193" fill-opacity="0.1"/>
<path d="M33.1384 917.197H42.725V893.434L74.9441 925.62L81.7228 918.848L49.5037 886.661H73.4157V877.085H33.1384V917.197Z" fill="#206193" fill-opacity="0.1"/>
<path d="M95.2769 917.197H104.863V893.434L137.083 925.62L143.861 918.848L111.642 886.661H135.554V877.085H95.2769V917.197Z" fill="#206193" fill-opacity="0.1"/>
<path d="M157.415 917.197H167.002V893.434L199.221 925.62L206 918.848L173.781 886.661H197.693V877.085H157.415V917.197Z" fill="#206193" fill-opacity="0.1"/>
<path d="M206 855.154H196.414V831.391L164.194 863.577L157.416 856.805L189.635 824.618H165.723V815.042H206V855.154Z" fill="#206193" fill-opacity="0.1"/>
<path d="M143.862 855.154H134.275V831.391L102.056 863.577L95.2773 856.805L127.496 824.618H103.584V815.042H143.862V855.154Z" fill="#206193" fill-opacity="0.1"/>
<path d="M81.7233 855.154H72.1367V831.391L39.9176 863.577L33.1389 856.805L65.358 824.618H41.446V815.042H81.7233V855.154Z" fill="#206193" fill-opacity="0.1"/>
<path d="M19.5846 855.154H9.99801V831.391L-22.2211 863.577L-28.9998 856.805L3.21927 824.618H-20.6927V815.042H19.5846V855.154Z" fill="#206193" fill-opacity="0.1"/>
<path d="M206 979.24H196.414V955.477L164.194 987.664L157.416 980.891L189.635 948.705H165.723V939.129H206V979.24Z" fill="#206193" fill-opacity="0.1"/>
<path d="M143.862 979.24H134.275V955.477L102.056 987.664L95.2773 980.891L127.496 948.705H103.584V939.129H143.862V979.24Z" fill="#206193" fill-opacity="0.1"/>
<path d="M81.7233 979.24H72.1367V955.477L39.9176 987.664L33.1389 980.891L65.358 948.705H41.446V939.129H81.7233V979.24Z" fill="#206193" fill-opacity="0.1"/>
<path d="M19.5846 979.24H9.99798V955.477L-22.2211 987.664L-28.9998 980.891L3.2193 948.705H-20.6927V939.129H19.5846V979.24Z" fill="#206193" fill-opacity="0.1"/>
</g>
<g clip-path="url(#clip2_110_18)">
<path d="M504 174.552H513.587V198.315L545.806 166.128L552.584 172.901L520.365 205.086H544.277V214.663H504V174.552Z" fill="#206193" fill-opacity="0.1"/>
<path d="M566.138 174.552H575.725V198.315L607.944 166.128L614.723 172.901L582.504 205.086H606.416V214.663H566.138V174.552Z" fill="#206193" fill-opacity="0.1"/>
<path d="M628.277 174.552H637.863V198.315L670.083 166.128L676.861 172.901L644.642 205.086H668.554V214.663H628.277V174.552Z" fill="#206193" fill-opacity="0.1"/>
<path d="M690.415 174.552H700.002V198.315L732.221 166.128L739 172.901L706.781 205.086H730.693V214.663H690.415V174.552Z" fill="#206193" fill-opacity="0.1"/>
<path d="M504 50.4665H513.587V74.2294L545.806 42.043L552.584 48.8154L520.365 81.0018H544.277V90.5777H504V50.4665Z" fill="#206193" fill-opacity="0.1"/>
<path d="M566.138 50.4665H575.725V74.2294L607.944 42.043L614.723 48.8154L582.504 81.0018H606.416V90.5777H566.138V50.4665Z" fill="#206193" fill-opacity="0.1"/>
<path d="M628.277 50.4665H637.863V74.2294L670.083 42.043L676.861 48.8154L644.642 81.0018H668.554V90.5777H628.277V50.4665Z" fill="#206193" fill-opacity="0.1"/>
<path d="M690.415 50.4665H700.002V74.2294L732.221 42.043L739 48.8154L706.781 81.0018H730.693V90.5777H690.415V50.4665Z" fill="#206193" fill-opacity="0.1"/>
<path d="M739 112.509H729.414V136.272L697.194 104.086L690.416 110.858L722.635 143.045H698.723V152.621H739V112.509Z" fill="#206193" fill-opacity="0.1"/>
<path d="M676.862 112.509H667.275V136.272L635.056 104.086L628.277 110.858L660.496 143.045H636.584V152.621H676.862V112.509Z" fill="#206193" fill-opacity="0.1"/>
<path d="M614.723 112.509H605.137V136.272L572.918 104.086L566.139 110.858L598.358 143.045H574.446V152.621H614.723V112.509Z" fill="#206193" fill-opacity="0.1"/>
<path d="M552.585 112.509H542.998V136.272L510.779 104.086L504 110.858L536.219 143.045H512.307V152.621H552.585V112.509Z" fill="#206193" fill-opacity="0.1"/>
<path d="M739 -11.577H729.414V12.1859L697.194 -20.0005L690.416 -13.2281L722.635 18.9583H698.723V28.5342H739V-11.577Z" fill="#206193" fill-opacity="0.1"/>
<path d="M676.862 -11.577H667.275V12.1859L635.056 -20.0005L628.277 -13.2281L660.496 18.9583H636.584V28.5342H676.862V-11.577Z" fill="#206193" fill-opacity="0.1"/>
<path d="M614.723 -11.577H605.137V12.1859L572.918 -20.0005L566.139 -13.2281L598.358 18.9583H574.446V28.5342H614.723V-11.577Z" fill="#206193" fill-opacity="0.1"/>
<path d="M552.585 -11.577H542.998V12.1859L510.779 -20.0005L504 -13.2281L536.219 18.9583H512.307V28.5342H552.585V-11.577Z" fill="#206193" fill-opacity="0.1"/>
</g>
</g>
<defs>
<clipPath id="clip0_110_18">
<rect width="708" height="960" fill="white"/>
</clipPath>
<clipPath id="clip1_110_18">
<rect width="235" height="234.663" fill="white" transform="translate(-29 753)"/>
</clipPath>
<clipPath id="clip2_110_18">
<rect width="235" height="234.663" fill="white" transform="matrix(1 0 0 -1 504 214.663)"/>
</clipPath>
</defs>
</svg>
